<svg width="15" height="15" viewBox="0 0 15 15" fill="none" xmlns="http://www.w3.org/2000/svg">
<path d="M14.0374 6.51219L3.28494 6.51219L7.98251 1.69164C8.35793 1.30639 8.35793 0.674187 7.98251 0.288938C7.60709 -0.0963116 7.00064 -0.0963116 6.62522 0.288938L0.281566 6.79866C-0.0938559 7.18391 -0.0938559 7.80623 0.281566 8.19148L6.61559 14.7111C6.79544 14.896 7.03961 15 7.29424 15C7.54887 15 7.79304 14.896 7.97289 14.7111C8.34831 14.3258 8.34831 13.7035 7.97289 13.3183L3.28494 8.48782L14.0374 8.48782C14.5668 8.48782 15 8.04331 15 7.50001C15 6.95671 14.5668 6.51219 14.0374 6.51219Z" fill="black" fill-opacity="0.2"/>
</svg>
